<svg xmlns="http://www.w3.org/2000/svg" viewBox="0 0 800 600" fill="none">
  <rect width="800" height="600" rx="42" fill="#F6F1EB"/>
  <path d="M358 127h92v144c0 33 27 60 60 60h26v72H414c-43 0-78-35-78-78V127Z" fill="#222F3E"/>
  <path d="M350 208h108M336 262h164M344 316h150" stroke="#9FB5C8" stroke-width="16" stroke-linecap="round"/>
  <path d="M516 331c18 16 32 41 32 69 0 49-40 89-89 89s-89-40-89-89c0-29 14-54 35-70" stroke="#1F7A3F" stroke-width="18" stroke-linecap="round"/>
  <text x="400" y="500" text-anchor="middle" fill="#1F2937" font-size="42" font-family="Segoe UI, sans-serif" font-weight="700">Ankle Support</text>
  <text x="400" y="538" text-anchor="middle" fill="#6B7280" font-size="24" font-family="Segoe UI, sans-serif">Secure brace for quick lateral play</text>
</svg>
