<svg xmlns="http://www.w3.org/2000/svg" viewBox="0 0 800 600" fill="none">
  <rect width="800" height="600" rx="42" fill="#F5F1EB"/>
  <rect x="74" y="72" width="652" height="456" rx="34" fill="#FFFFFF" stroke="#DCE4DD"/>
  <rect x="408" y="120" width="214" height="146" rx="20" fill="#E97B2E"/>
  <text x="515" y="188" text-anchor="middle" fill="#FFF5E9" font-size="42" font-family="Segoe UI, sans-serif" font-weight="800">NANYANG</text>
  <path d="M182 353c59 0 110-14 173-59 47 6 74 21 110 59 27 29 66 45 129 52v48H182v-100Z" fill="#20232A"/>
  <path d="M229 335c61 0 101-11 147-42 29 4 48 11 70 23" stroke="#3A3F47" stroke-width="16" stroke-linecap="round"/>
  <path d="M286 280h109" stroke="#0F1115" stroke-width="18" stroke-linecap="round"/>
  <path d="M286 305h102" stroke="#0F1115" stroke-width="18" stroke-linecap="round"/>
  <path d="M286 330h95" stroke="#0F1115" stroke-width="18" stroke-linecap="round"/>
  <path d="M224 453h388" stroke="#0F1115" stroke-width="16" stroke-linecap="round"/>
  <path d="M232 466c18 0 20-26 39-26 19 0 21 26 40 26s21-26 40-26 21 26 40 26 21-26 40-26 21 26 40 26 21-26 40-26 21 26 40 26" stroke="#0F1115" stroke-width="10" stroke-linecap="round"/>
  <text x="400" y="520" text-anchor="middle" fill="#1F2937" font-size="42" font-family="Segoe UI, sans-serif" font-weight="700">Nanyang Shoes</text>
  <text x="400" y="556" text-anchor="middle" fill="#6B7280" font-size="24" font-family="Segoe UI, sans-serif">Replace with your uploaded photo for an exact match</text>
</svg>
